<svg id="logo" xmlns="http://www.w3.org/2000/svg" xmlns:xlink="http://www.w3.org/1999/xlink" width="4800" height="1280" viewBox="0 0 4800 1280">
  <defs>
    <clipPath id="clip-path">
      <path d="M128,128V1152H1152V128H128ZM703.92,470.61c-14.52,28.19-30.87,55.21-46.69,81.33-42.34,69.93-82.34,136-87.73,221.06v0.13c-0.2,3.21-.58,9.17-3.4,15-4.43,9.13-13,14.36-23.54,14.36s-19.11-5.23-23.54-14.36c-2.82-5.81-3.2-11.78-3.4-15V773c-5.39-85.09-45.39-151.14-87.73-221.07-15.82-26.13-32.18-53.14-46.69-81.33a183.73,183.73,0,0,1-22.07-87.31c0-101.15,82.29-183.44,183.44-183.44S726,282.15,726,383.3A183.74,183.74,0,0,1,703.92,470.61Z" style="fill: none"/>
    </clipPath>
    <clipPath id="clip-path-2">
      <path d="M346,870.35A55.91,55.91,0,1,1,402,926.26,55.91,55.91,0,0,1,346,870.35M635.27,301.58l-326,326a65.37,65.37,0,0,0-19.14,46.22v243a65.36,65.36,0,0,0,65.36,65.36h243A65.35,65.35,0,0,0,644.72,963l326-326a65.36,65.36,0,0,0,0-92.43l-243-243a65.37,65.37,0,0,0-92.43,0" style="fill: none"/>
    </clipPath>
  </defs>
  <title>logo_horizontal</title>
  <g id="label">
    <g style="clip-path: url(#clip-path)">
      <g>
        <g id="flat">
          <g style="clip-path: url(#clip-path-2)">
            <polygon points="377.99 558.86 234.23 590.81 234.23 1038.07 569.67 1038.07 569.67 750.54 377.99 558.86" style="fill: #fff"/>
            <polygon points="681.49 702.62 961.03 423.09 1016.93 478.99 1016.93 702.62 681.49 1038.07 681.49 702.62" style="fill: #fff"/>
            <polygon points="401.95 423.09 625.58 646.72 905.12 367.18 793.3 255.36 569.67 255.36 401.95 423.09" style="fill: #fff"/>
          </g>
        </g>
        <path id="stroke" d="M346,870.35A55.91,55.91,0,1,1,402,926.26,55.91,55.91,0,0,1,346,870.35M635.27,301.58l-326,326a65.37,65.37,0,0,0-19.14,46.22v243a65.36,65.36,0,0,0,65.36,65.36h243A65.35,65.35,0,0,0,644.72,963l326-326a65.36,65.36,0,0,0,0-92.43l-243-243a65.37,65.37,0,0,0-92.43,0" style="fill: none;stroke: #fff;stroke-miterlimit: 10;stroke-width: 16px"/>
      </g>
    </g>
  </g>
  <g id="pin">
    <path d="M487.21,341.65a13.42,13.42,0,1,0-13.42-13.42A13.43,13.43,0,0,0,487.21,341.65Z" style="fill: #fff"/>
    <path d="M597.9,425.51a13.42,13.42,0,1,0,13.42,13.42A13.44,13.44,0,0,0,597.9,425.51Z" style="fill: #fff"/>
    <path d="M542.56,215.86A167.5,167.5,0,0,0,395.33,463.13c52.46,102,128.5,186.56,136.25,308.87,0.31,4.83.82,14.49,11,14.49s10.67-9.65,11-14.49c7.75-122.3,83.79-206.91,136.25-308.87A167.49,167.49,0,0,0,542.56,215.86ZM487.21,288A40.25,40.25,0,1,1,447,328.23,40.26,40.26,0,0,1,487.21,288Zm-14,184.15-19-19L612.41,295l19,19Zm124.64,7a40.25,40.25,0,1,1,40.25-40.25A40.25,40.25,0,0,1,597.9,479.18Z" style="fill: #fff"/>
  </g>
  <g id="text">
    <path d="M1736.46,915.15h-51.65L1333.34,391.92V915.15h-52.07V303.74h52.07l351.89,523.64V303.74h51.23V915.15Z" style="fill: #fff"/>
    <path d="M2056,923.54q-57.95,0-104.77-28.55t-72.86-79.58q-26-51-26-114.43V682.93q0-65.51,25.41-118t70.76-82.51q45.35-30,98.26-30,82.72,0,131.23,56.48t48.5,154.32v28.13H1902.33V701q0,77.27,44.3,128.71t111.49,51.44q40.31,0,71.18-14.7t56.06-47l31.49,23.94Q2161.42,923.55,2056,923.54Zm-9.24-428.32q-56.69,0-95.53,41.57T1904,648.5h272.53V643q-2.11-65.51-37.37-106.66T2046.78,495.22Z" style="fill: #fff"/>
    <path d="M2611.16,915.15q-7.56-21.42-9.66-63.41-26.46,34.44-67.4,53.12a206.5,206.5,0,0,1-86.71,18.69q-65.51,0-106-36.53t-40.52-92.38q0-66.34,55.22-105T2510,651h91.12V599.37q0-48.71-30-76.64T2483.5,494.8q-52.5,0-86.92,26.88t-34.43,64.67l-50.39-.42q0-54.17,50.39-93.85T2486,452.39q76,0,119.89,38t45.14,106v215q0,65.93,13.86,98.68v5h-53.75ZM2453.27,879q50.39,0,90.07-24.36t57.74-65.09V689.65h-89.86q-75.17.85-117.58,27.5t-42.41,73.28q0,38.22,28.34,63.41T2453.27,879Z" style="fill: #fff"/>
    <path d="M2995,503.62a188.17,188.17,0,0,0-34-2.94q-47,0-79.58,26.25T2835,603.14v312h-50V460.79h49.13L2835,533q39.89-80.63,128.08-80.63,21,0,33.17,5.46Z" style="fill: #fff"/>
    <path d="M3055,915.15V303.74h219.62q118,0,179.52,43.25t61.52,125.56q0,47.46-21.84,81t-64.25,49.55q47.87,12.6,73.49,47t25.62,84q0,89.87-56.9,135t-168.6,46H3055Zm147.39-356.51h76.85q48.28-.41,68.87-17.69t20.58-51q0-38.75-22.26-55.8t-71.81-17.06h-72.23V558.63Zm0,96.58V801.77H3299q39.89,0,61.31-18.27t21.42-51.44q0-76.42-76-76.85h-103.3Z" style="fill: #fff"/>
    <path d="M3873.86,866q-44.94,57.54-121.36,57.53-74.75,0-113.17-43.46t-38.42-124.93V460.79h141.51V756q0,58.37,56.69,58.37,48.71,0,69.29-34.85V460.79h142.35V915.15h-132.7Z" style="fill: #fff"/>
    <path d="M4269.85,716.94l75.59-256.15H4497L4311.84,991.15l-8,19.32q-39.48,88.18-139.41,88.18-27.71,0-58.37-8.37V989.47h18.48q29.81,0,45.56-8.61T4193.42,950l11.34-30.25L4046.87,460.79H4198Z" style="fill: #fff"/>
  </g>
</svg>
