<svg id="Calque_1" data-name="Calque 1" xmlns="http://www.w3.org/2000/svg" xmlns:xlink="http://www.w3.org/1999/xlink" width="360" height="240" viewBox="0 0 360 240">
  <defs>
    <clipPath id="clip-path">
      <path d="M0,10V163H153V10H0ZM86.27,60.59c-2.18,4.23-4.63,8.28-7,12.2C72.92,83.28,66.92,93.19,66.11,106v0a5.89,5.89,0,0,1-.51,2.25,4,4,0,0,1-7.06,0A5.89,5.89,0,0,1,58,106v0c-0.81-12.76-6.81-22.67-13.16-33.16-2.37-3.92-4.83-8-7-12.2A27.52,27.52,0,1,1,86.27,60.59Z" style="fill: none"/>
    </clipPath>
    <clipPath id="clip-path-2">
      <path d="M32.59,120.55A8.39,8.39,0,1,1,41,128.94a8.39,8.39,0,0,1-8.39-8.39M76,35.24l-48.9,48.9a9.81,9.81,0,0,0-2.87,6.93v36.45a9.8,9.8,0,0,0,9.8,9.8H70.46a9.8,9.8,0,0,0,6.93-2.87l48.9-48.9a9.8,9.8,0,0,0,0-13.86L89.84,35.24a9.8,9.8,0,0,0-13.87,0" style="fill: none"/>
    </clipPath>
  </defs>
  <title>logo_slider</title>
  <g id="label">
    <g style="clip-path: url(#clip-path)">
      <g>
        <g id="flat">
          <g style="clip-path: url(#clip-path-2)">
            <polygon points="37.38 73.83 15.82 78.62 15.82 145.71 66.14 145.71 66.14 102.58 37.38 73.83" style="fill: #fff"/>
            <polygon points="82.91 95.39 124.84 53.46 133.22 61.85 133.22 95.39 82.91 145.71 82.91 95.39" style="fill: #fff"/>
            <polygon points="40.98 53.46 74.52 87.01 116.45 45.08 99.68 28.3 66.14 28.3 40.98 53.46" style="fill: #fff"/>
          </g>
        </g>
        <path id="stroke" d="M32.59,120.55A8.39,8.39,0,1,1,41,128.94a8.39,8.39,0,0,1-8.39-8.39M76,35.24l-48.9,48.9a9.81,9.81,0,0,0-2.87,6.93v36.45a9.8,9.8,0,0,0,9.8,9.8H70.46a9.8,9.8,0,0,0,6.93-2.87l48.9-48.9a9.8,9.8,0,0,0,0-13.86L89.84,35.24a9.8,9.8,0,0,0-13.87,0" style="fill: none;stroke: #fff;stroke-miterlimit: 10;stroke-width: 2.4000000000000004px"/>
      </g>
    </g>
  </g>
  <g id="pin">
    <circle cx="53.77" cy="39.23" r="2.01" style="fill: #fff"/>
    <circle cx="70.37" cy="55.84" r="2.01" style="fill: #fff"/>
    <path d="M62.07,22.38A25.12,25.12,0,0,0,40,59.47c7.87,15.29,19.27,28,20.44,46.33,0,0.73.12,2.17,1.65,2.17s1.6-1.45,1.65-2.17c1.16-18.35,12.57-31,20.44-46.33A25.12,25.12,0,0,0,62.07,22.38ZM53.77,33.2a6,6,0,1,1-6,6A6,6,0,0,1,53.77,33.2ZM51.67,60.82L48.83,58,72.55,34.25l2.85,2.85Zm18.7,1.06a6,6,0,1,1,6-6A6,6,0,0,1,70.37,61.88Z" style="fill: #fff"/>
  </g>
  <g id="NearBuy">
    <path d="M57.83,210.52H54L27.6,171.28v39.24H23.69V164.66H27.6L54,203.94V164.66h3.84v45.86Z" style="fill: #fff"/>
    <path d="M81.8,211.15A14.79,14.79,0,0,1,73.94,209a14.59,14.59,0,0,1-5.46-6,18.6,18.6,0,0,1-2-8.58V193.1a20,20,0,0,1,1.91-8.85,15.16,15.16,0,0,1,5.31-6.19,13.09,13.09,0,0,1,7.37-2.25A12.31,12.31,0,0,1,90.95,180q3.64,4.24,3.64,11.57v2.11H70.27v0.72a14.27,14.27,0,0,0,3.32,9.65A10.57,10.57,0,0,0,82,208a12.27,12.27,0,0,0,5.34-1.1,11.83,11.83,0,0,0,4.2-3.53l2.36,1.8Q89.7,211.15,81.8,211.15ZM81.11,179a9.42,9.42,0,0,0-7.16,3.12,14.4,14.4,0,0,0-3.54,8.38H90.84v-0.41a12.51,12.51,0,0,0-2.8-8A8.69,8.69,0,0,0,81.11,179Z" style="fill: #fff"/>
    <path d="M123.43,210.52a17.81,17.81,0,0,1-.72-4.76,13.14,13.14,0,0,1-5.05,4,15.49,15.49,0,0,1-6.5,1.4,11.42,11.42,0,0,1-8-2.74,8.92,8.92,0,0,1-3-6.93,9.12,9.12,0,0,1,4.14-7.87q4.14-2.9,11.54-2.9h6.83v-3.87a7.47,7.47,0,0,0-2.25-5.75q-2.25-2.09-6.57-2.09a10.28,10.28,0,0,0-6.52,2,6,6,0,0,0-2.58,4.85l-3.78,0a8.76,8.76,0,0,1,3.78-7,14.55,14.55,0,0,1,9.29-3q5.7,0,9,2.85a10.23,10.23,0,0,1,3.39,8v16.13a20,20,0,0,0,1,7.4v0.38h-4Zm-11.84-2.71a12.65,12.65,0,0,0,6.76-1.83,10.75,10.75,0,0,0,4.33-4.88v-7.5h-6.74q-5.64.06-8.82,2.06a6.19,6.19,0,0,0-3.18,5.5,6.09,6.09,0,0,0,2.13,4.76A8,8,0,0,0,111.59,207.81Z" style="fill: #fff"/>
    <path d="M152.22,179.65a14.11,14.11,0,0,0-2.55-.22,9.2,9.2,0,0,0-6,2,10.78,10.78,0,0,0-3.48,5.72v23.4h-3.75V176.44h3.68l0.06,5.42a10,10,0,0,1,9.61-6,6.21,6.21,0,0,1,2.49.41Z" style="fill: #fff"/>
    <path d="M156.72,210.52V164.66H173.2q8.85,0,13.46,3.24a10.79,10.79,0,0,1,4.61,9.42,10.91,10.91,0,0,1-1.64,6.08,9.54,9.54,0,0,1-4.82,3.72,9.67,9.67,0,0,1,5.51,3.53,10.26,10.26,0,0,1,1.92,6.3q0,6.74-4.27,10.13t-12.64,3.45H156.72Zm11.05-26.74h5.76q3.62,0,5.17-1.33a4.71,4.71,0,0,0,1.54-3.82,4.94,4.94,0,0,0-1.67-4.19q-1.67-1.28-5.39-1.28h-5.42v10.61Zm0,7.24v11H175a6.89,6.89,0,0,0,4.6-1.37,4.79,4.79,0,0,0,1.61-3.86q0-5.73-5.7-5.76h-7.75Z" style="fill: #fff"/>
    <path d="M218.14,206.83a10.94,10.94,0,0,1-9.1,4.31q-5.61,0-8.49-3.26t-2.88-9.37V176.44h10.61v22.14q0,4.38,4.25,4.38,3.65,0,5.2-2.61v-23.9H228.4v34.08h-10Z" style="fill: #fff"/>
    <path d="M247.84,195.65l5.67-19.21h11.37L251,216.22l-0.6,1.45q-3,6.61-10.46,6.61a16.63,16.63,0,0,1-4.38-.63v-7.56h1.39a7.26,7.26,0,0,0,3.42-.65,3.92,3.92,0,0,0,1.75-2.32l0.85-2.27-11.84-34.42h11.34Z" style="fill: #fff"/>
  </g>
</svg>
