<?xml version="1.0" standalone="no"?>
<!DOCTYPE svg PUBLIC "-//W3C//DTD SVG 20010904//EN"
 "http://www.w3.org/TR/2001/REC-SVG-20010904/DTD/svg10.dtd">
<svg version="1.0" xmlns="http://www.w3.org/2000/svg"
 width="16.000000pt" height="16.000000pt" viewBox="0 0 16.000000 16.000000"
 preserveAspectRatio="xMidYMid meet">
<metadata>
Created by potrace 1.11, written by Peter Selinger 2001-2013
</metadata>
<g transform="translate(0.000000,16.000000) scale(0.002065,-0.002065)"
fill="#000000" stroke="none">
<path d="M2775 7738 c-511 -38 -980 -309 -1266 -729 -108 -159 -209 -388 -244
-554 -32 -151 -37 -195 -38 -360 -2 -194 2 -245 32 -388 51 -242 184 -514 536
-1097 48 -80 97 -161 107 -180 11 -19 26 -42 34 -51 8 -8 14 -18 14 -22 0 -3
36 -65 80 -137 44 -72 80 -133 80 -134 0 -1 39 -69 86 -151 180 -314 338 -664
429 -945 59 -185 65 -205 70 -227 48 -226 69 -353 80 -478 10 -116 16 -167 25
-189 27 -72 143 -84 182 -18 9 15 19 59 23 97 3 39 8 86 10 105 3 19 7 58 10
85 8 75 13 107 19 135 3 14 8 42 11 62 8 59 53 245 81 338 129 420 295 767
650 1360 71 118 133 222 139 231 5 9 20 34 33 55 12 22 28 48 35 59 60 96 187
313 254 435 17 30 44 80 60 110 136 247 192 393 239 620 19 91 26 401 12 512
-57 445 -302 863 -662 1127 -108 79 -119 86 -216 139 -116 63 -295 130 -394
148 -16 2 -32 7 -36 9 -11 7 -132 25 -206 31 -115 9 -175 9 -269 2z m-300
-743 c201 -71 309 -286 249 -494 -66 -228 -334 -347 -550 -245 -210 99 -291
344 -183 556 23 45 109 132 153 155 100 53 231 64 331 28z m1217 -145 l90 -91
-789 -789 -788 -789 -95 95 -95 94 785 785 c432 432 789 785 793 785 5 0 49
-41 99 -90z m-187 -944 c117 -13 255 -112 303 -217 96 -210 12 -444 -191 -540
-154 -72 -326 -41 -447 81 -63 63 -81 93 -104 169 -67 229 79 462 318 506 34
7 66 10 71 9 6 -2 28 -5 50 -8z"/>
<path d="M2303 6747 c-90 -27 -124 -149 -61 -218 68 -76 196 -51 227 44 34
104 -61 205 -166 174z"/>
<path d="M3415 5642 c-96 -22 -133 -149 -65 -224 19 -21 81 -48 101 -44 72 12
111 45 129 107 26 91 -68 183 -165 161z"/>
<path d="M4380 7145 c0 -3 15 -27 33 -53 110 -158 223 -409 262 -582 17 -79
35 -177 41 -230 11 -86 11 -337 1 -425 -10 -83 -52 -279 -73 -338 -9 -23 -17
-49 -19 -58 -6 -28 -56 -143 -107 -244 -45 -89 -81 -155 -173 -319 -34 -61
-169 -291 -244 -414 -31 -51 -61 -101 -66 -110 -6 -9 -48 -80 -94 -157 -140
-234 -175 -294 -257 -445 -118 -214 -114 -186 -35 -264 36 -36 71 -66 76 -66
6 0 498 488 1095 1085 l1085 1085 277 -277 278 -278 -1090 -1090 -1090 -1090
0 -1064 0 -1064 -229 -228 c-336 -335 -363 -349 -683 -357 l-198 -4 -1 1008
c-1 555 -5 986 -9 958 -14 -98 -69 -182 -142 -220 -38 -20 -122 -29 -181 -20
-65 10 -139 67 -171 131 -26 53 -32 82 -41 185 -13 150 -16 176 -20 200 -3 14
-8 43 -11 65 -21 147 -79 372 -144 558 l-50 142 -545 545 -545 545 161 161
161 161 -42 72 c-36 61 -45 70 -58 59 -74 -62 -1091 -1094 -1119 -1136 -20
-31 -49 -86 -65 -122 -60 -145 -58 -76 -58 -1490 0 -1300 1 -1354 35 -1455 49
-147 154 -288 280 -375 28 -19 52 -35 55 -35 3 -1 25 -12 50 -25 25 -13 83
-34 130 -46 l85 -23 1330 2 c732 1 1340 6 1353 10 12 4 32 9 45 12 48 10 135
50 200 92 53 33 448 423 1735 1708 917 916 1686 1689 1709 1718 51 66 108 181
130 262 22 84 26 254 8 335 -22 97 -53 174 -97 243 -28 44 -404 427 -1301
1325 -694 695 -1285 1281 -1314 1303 -87 65 -204 117 -305 134 -21 3 -38 3
-38 0z m-2750 -5494 c283 -87 421 -416 281 -675 -69 -127 -173 -208 -310 -241
-221 -54 -451 58 -546 267 -31 68 -37 96 -40 191 -7 225 164 433 389 473 17 3
32 6 33 8 9 9 137 -6 193 -23z"/>
</g>
</svg>
